<svg xmlns="http://www.w3.org/2000/svg" width="23.625" height="14.571" viewBox="0 0 23.625 14.571">
  <path id="Email_candidate_icon" data-name="Email candidate icon" d="M3.375,16.285a1.7,1.7,0,0,1-1.687-1.714L8.3,9.536l3.686,2.809a2.5,2.5,0,0,0,3.037,0L18.7,9.536l6.609,5.035a1.7,1.7,0,0,1-1.687,1.714ZM19.406,9l5.907-4.5v9ZM1.688,4.5,7.593,9,1.688,13.5Zm10.8,7.159L9,9l-.7-.535L1.688,3.429A1.7,1.7,0,0,1,3.375,1.715h20.25a1.7,1.7,0,0,1,1.688,1.715l-10.8,8.23a1.665,1.665,0,0,1-2.024,0Z" transform="translate(-1.688 -1.715)" fill="#0092d0"/>
</svg>
