<svg id="FIlter_icon" data-name="FIlter icon" xmlns="http://www.w3.org/2000/svg" width="20.044" height="20.556" viewBox="0 0 20.044 20.556">
  <path id="Path_1" data-name="Path 1" d="M1.914,0A1.843,1.843,0,0,0,.166.86,1.842,1.842,0,0,0,.44,2.789L7.321,12.35a.553.553,0,0,1,.028.11l-.006,3.373A1.884,1.884,0,0,0,7.8,17.04l3.33,3.138a1.032,1.032,0,0,0,.723.378c.413,0,.83-.409.83-1.323V12.464a.563.563,0,0,1,.026-.111L19.6,2.788A1.843,1.843,0,0,0,19.879.86,1.84,1.84,0,0,0,18.133,0H1.9" transform="translate(0)" fill="#fff" fill-rule="evenodd"/>
</svg>
